# xmcd
#
# Track frame offsets:
#	150
#	19555
#	41647
#	61599
#	82751
#	104673
#	124109
#	141778
#	158730
#	186653
#	209324
#	229166
#	243055
#	256919
#	275483
#	292389
#	309770
#
# Disc length: 4350 seconds
#
# Revision: 0
# Processed by: cddbd v1.5.2PL0 Copyright (c) Steve Scherf et al.
# Submitted via: EasyCDDAExtractor 11.1.0.1
#
DISCID=ea10fc11
DTITLE=Carpenters The - 0352 Once More
DYEAR=1900
DGENRE=Country
TTITLE0=Close To You
TTITLE1=Top Of The World
TTITLE2=We've Only Just Begun
TTITLE3=This Masquerade
TTITLE4=There's A Kind of Hush
TTITLE5=Bless The Beast And Cildren
TTITLE6=For All We Know
TTITLE7=Superstar
TTITLE8=Touch Me When We're Dancing
TTITLE9=Rainy Dayus And Mondays
TTITLE10=Only Yesterday
TTITLE11=Sweet Sweet Smile
TTITLE12=Please Mr Postman
TTITLE13=Goodbye To Love
TTITLE14=Solitaire
TTITLE15=Calling Occupants of Interplanetary Craft
TTITLE16=I Won't Last A Day Without You
EXTD=
EXTT0=
EXTT1=
EXTT2=
EXTT3=
EXTT4=
EXTT5=
EXTT6=
EXTT7=
EXTT8=
EXTT9=
EXTT10=
EXTT11=
EXTT12=
EXTT13=
EXTT14=
EXTT15=
EXTT16=
PLAYORDER=
